<?xml version="1.0" encoding="UTF-8"?>
<svg version="1.1" xmlns="http://www.w3.org/2000/svg" width="500" height="500">
<path d="M0 0 C165 0 330 0 500 0 C500 165 500 330 500 500 C335 500 170 500 0 500 C0 335 0 170 0 0 Z " fill="#F5F3EF" transform="translate(0,0)"/>
<path d="M0 0 C2.8767759 1.53860351 3.59231428 2.32597142 5.5 5.1875 C5.71951495 10.67537377 4.0743917 13.03751994 0.4375 17.125 C-0.86131697 18.4922959 -2.16953803 19.8509767 -3.5 21.1875 C0.13 21.1875 3.76 21.1875 7.5 21.1875 C7.83 19.95 8.16 18.7125 8.5 17.4375 C10.62811859 10.9498375 14.64584769 4.04165231 19.5 -0.8125 C26.02542373 -1.04978814 26.02542373 -1.04978814 28.5 0.1875 C27.44651352 3.34795943 26.09985901 5.85065068 24.125 8.5 C21.38762798 12.18773559 19.46417586 16.04090651 17.5 20.1875 C21.13 20.5175 24.76 20.8475 28.5 21.1875 C28.5 21.8475 28.5 22.5075 28.5 23.1875 C23.73692563 24.14011487 19.3333472 24.27083357 14.5 24.1875 C14.36464844 24.70054687 14.22929687 25.21359375 14.08984375 25.7421875 C12.43831378 31.61649172 10.33079801 37.21952869 8.0625 42.875 C4.13203917 52.7449843 1.12699842 62.65986317 -0.5 73.1875 C4.83601876 68.89709806 8.9777471 64.41710631 13.0625 58.9375 C13.6289624 58.18750732 14.1954248 57.43751465 14.77905273 56.66479492 C18.73418535 51.3689975 22.25412691 45.94558993 25.5 40.1875 C28.96067416 34.72682584 28.96067416 34.72682584 30.5 33.1875 C32.16617115 33.14686168 33.83388095 33.144779 35.5 33.1875 C36.72475674 36.72122437 36.55745526 38.05223748 35.06640625 41.5625 C34.41222458 42.7783528 33.74377064 43.98661616 33.0625 45.1875 C29.89288018 50.81994591 29.89288018 50.81994591 29.5 57.1875 C34.57915091 53.59316326 37.40209156 49.23003413 40.66210938 44.05664062 C42.84306815 40.80409265 43.97693188 39.33351548 47.81640625 38.26171875 C49.14478516 38.22498047 49.14478516 38.22498047 50.5 38.1875 C52.10242739 42.70343173 50.83932675 45.74000433 49.19140625 50.00390625 C48.29875609 52.44132661 48.29875609 52.44132661 48.5 56.1875 C53.18035682 51.72096658 57.43315876 47.23607516 61.17578125 41.94921875 C62.51908413 40.16211078 63.78194957 38.62216067 65.5 37.1875 C69.23402834 37.26694741 70.94698521 37.66800126 73.69140625 40.24609375 C74.28824219 40.88675781 74.88507813 41.52742188 75.5 42.1875 C75.8242395 41.35726318 75.8242395 41.35726318 76.1550293 40.51025391 C87.92880708 10.45819427 87.92880708 10.45819427 96.5 5.1875 C100.32591768 4.37817126 101.6393112 4.65784536 104.9375 6.6875 C106.77265533 9.62374853 106.86526761 11.48567918 106.22265625 14.8671875 C102.85437764 25.68209289 94.81090473 34.91889114 87.59375 43.4375 C80.82446997 51.66682082 81.18262256 60.92562946 81.5 71.1875 C85.06623213 67.76567515 88.08483251 64.23782595 91 60.25 C93.36231037 57.03615915 95.69199393 53.88880668 98.375 50.9375 C101.03475902 47.49545891 102.06594716 44.28479383 103.5 40.1875 C104.49 39.1975 104.49 39.1975 105.5 38.1875 C108.625 38.5625 108.625 38.5625 111.5 39.1875 C111.5 43.04100753 111.17228372 44.31950105 109.5625 47.625 C108.07366007 50.81311661 106.95442159 53.66573271 106.5 57.1875 C112.02418586 55.1926551 115.3080732 53.1441405 117.9375 47.8125 C120.4647398 43.05170576 123.1275611 39.43303042 128 36.875 C131.15700932 34.74401871 132.46312207 32.31771291 134.2890625 29.02734375 C135.5 27.1875 135.5 27.1875 138.5 25.1875 C142.36259426 25.27146944 144.22147257 25.98768684 147.375 28.25 C150.05260807 31.95139939 150.17268852 34.81928217 149.5 39.1875 C148.5 42.6875 148.5 42.6875 147.5 45.1875 C151.955 44.6925 151.955 44.6925 156.5 44.1875 C155.84 45.5075 155.18 46.8275 154.5 48.1875 C153.2625 48.27 152.025 48.3525 150.75 48.4375 C147.93853066 48.64122966 146.83869414 48.86112201 144.78125 50.84375 C143.26758217 52.91345908 141.86179165 55.01521603 140.5 57.1875 C137.49159875 61.45748888 134.45214138 64.41220404 129.5 66.1875 C124.95350658 66.26588782 123.14093714 65.71696981 119.625 62.8125 C117.5 60.1875 117.5 60.1875 116.5 57.1875 C115.79875 58.0125 115.0975 58.8375 114.375 59.6875 C111.5 62.1875 111.5 62.1875 108.5 62.875 C104.11712334 61.87059077 103.05360081 59.83550116 100.5 56.1875 C100.17 55.5275 99.84 54.8675 99.5 54.1875 C99.1376123 54.70658936 98.77522461 55.22567871 98.40185547 55.76049805 C96.73475 58.13809916 95.05503332 60.50651824 93.375 62.875 C92.52035156 64.09993164 92.52035156 64.09993164 91.6484375 65.34960938 C88.32392606 70.01525896 85.20132013 73.87444416 80.5 77.1875 C77.8125 77.375 77.8125 77.375 75.5 76.1875 C72.43724136 71.70274628 71.95470625 67.46209249 71.5 62.1875 C71.07589844 62.60902344 70.65179688 63.03054688 70.21484375 63.46484375 C66.16638373 67.24637234 63.30180749 69.29907322 57.5 69.1875 C55.35139927 67.68347949 54.66447508 66.51645015 53.5 64.1875 C53.45977609 61.8545134 53.45679753 59.52043334 53.5 57.1875 C52.448125 58.1465625 52.448125 58.1465625 51.375 59.125 C48.22147257 61.38731316 46.36259426 62.10353056 42.5 62.1875 C40.625 61.25 40.625 61.25 39.5 59.1875 C39.25914039 56.46846262 39.36519155 53.92860515 39.5 51.1875 C39.07589844 51.79078125 38.65179688 52.3940625 38.21484375 53.015625 C34.45092298 58.14448407 31.43176761 61.72525684 25.5 64.1875 C23.1875 64.3125 23.1875 64.3125 21.5 63.1875 C20.7858273 61.20396734 20.11564095 59.20379132 19.5 57.1875 C19.13237549 57.67105957 18.76475098 58.15461914 18.38598633 58.65283203 C16.6962355 60.87379911 15.00438374 63.09315736 13.3125 65.3125 C12.73435547 66.07304687 12.15621094 66.83359375 11.56054688 67.6171875 C9.88363457 69.81517425 8.19522575 72.00361578 6.5 74.1875 C6.0268335 74.80439697 5.55366699 75.42129395 5.06616211 76.05688477 C1.85901896 80.10690391 1.85901896 80.10690391 -1.5625 80.875 C-4.5 80.1875 -4.5 80.1875 -6.875 78.1875 C-10.27977488 71.90176176 -8.24852353 64.73009575 -6.5625 58.125 C-6.35085205 57.28098633 -6.1392041 56.43697266 -5.92114258 55.56738281 C-3.0617098 44.77447394 1.21545358 34.47937548 5.5 24.1875 C3.96666016 24.43306641 3.96666016 24.43306641 2.40234375 24.68359375 C-1.10972575 25.13710423 -4.40284454 25.28971523 -7.9375 25.25 C-8.98808594 25.24097656 -10.03867187 25.23195312 -11.12109375 25.22265625 C-12.29865234 25.20525391 -12.29865234 25.20525391 -13.5 25.1875 C-13.5 24.5275 -13.5 23.8675 -13.5 23.1875 C-12.71625 23.125625 -11.9325 23.06375 -11.125 23 C-10.25875 22.731875 -9.3925 22.46375 -8.5 22.1875 C-7.3974827 20.02128132 -7.3974827 20.02128132 -6.5 17.1875 C-5.62218226 15.84223752 -4.72475832 14.50964973 -3.8125 13.1875 C-1.73423515 10.00084163 -1.73423515 10.00084163 -1.6875 6.1875 C-1.955625 5.5275 -2.22375 4.8675 -2.5 4.1875 C-9.50112395 4.43754014 -13.39544228 6.41151152 -18.5 11.1875 C-22.07944881 15.10252213 -21.94489311 19.1399893 -21.78125 24.2265625 C-21.0911553 31.49172616 -19.09142467 37.39826124 -15.3125 43.625 C-11.98384633 49.47308577 -11.13066395 54.5660395 -12.5 61.1875 C-15.52329696 67.76704692 -19.54947331 71.78988209 -26.0625 74.875 C-31.1472889 76.66180432 -36.17530629 76.92726661 -41.5 76.1875 C-44.8020291 74.56545062 -46.67219129 73.27870239 -48.875 70.375 C-50.53301241 64.57195657 -49.53125192 60.18419077 -46.70703125 55.0546875 C-44.93434869 52.31247952 -43.0475474 50.22553792 -40.5 48.1875 C-39.18 48.1875 -37.86 48.1875 -36.5 48.1875 C-38.35123967 53.87345041 -38.35123967 53.87345041 -39.625 56.5625 C-40.86960008 60.29630024 -40.7541186 63.24866165 -40.5 67.1875 C-39.84 68.1775 -39.18 69.1675 -38.5 70.1875 C-31.48116332 69.64765851 -31.48116332 69.64765851 -25.5 66.1875 C-21.85638607 61.39327114 -21.14844693 58.66500025 -21.93896484 52.80029297 C-23.02212554 47.75591273 -25.03583121 43.06785601 -27 38.3125 C-27.82322176 36.27356066 -28.64615203 34.23450359 -29.46875 32.1953125 C-29.83419922 31.30473145 -30.19964844 30.41415039 -30.57617188 29.49658203 C-32.64878204 24.31615207 -33.50257404 19.54644233 -31.88671875 14.1328125 C-28.89653404 7.36208588 -23.63762368 3.30198552 -17.625 -0.75 C-11.56269976 -2.81118208 -5.82550696 -2.75387602 0 0 Z " fill="#FE9655" transform="translate(269.5,207.8125)"/>
<path d="M0 0 C2.8767759 1.53860351 3.59231428 2.32597142 5.5 5.1875 C5.71951495 10.67537377 4.0743917 13.03751994 0.4375 17.125 C-0.86131697 18.4922959 -2.16953803 19.8509767 -3.5 21.1875 C0.13 21.1875 3.76 21.1875 7.5 21.1875 C7.83 19.95 8.16 18.7125 8.5 17.4375 C10.62811859 10.9498375 14.64584769 4.04165231 19.5 -0.8125 C26.02542373 -1.04978814 26.02542373 -1.04978814 28.5 0.1875 C27.44651352 3.34795943 26.09985901 5.85065068 24.125 8.5 C21.38762798 12.18773559 19.46417586 16.04090651 17.5 20.1875 C21.13 20.5175 24.76 20.8475 28.5 21.1875 C28.5 21.8475 28.5 22.5075 28.5 23.1875 C23.73692563 24.14011487 19.3333472 24.27083357 14.5 24.1875 C14.36464844 24.70054687 14.22929687 25.21359375 14.08984375 25.7421875 C12.43831378 31.61649172 10.33079801 37.21952869 8.0625 42.875 C4.13203917 52.7449843 1.12699842 62.65986317 -0.5 73.1875 C4.83601876 68.89709806 8.9777471 64.41710631 13.0625 58.9375 C13.6289624 58.18750732 14.1954248 57.43751465 14.77905273 56.66479492 C18.73418535 51.3689975 22.25412691 45.94558993 25.5 40.1875 C28.96067416 34.72682584 28.96067416 34.72682584 30.5 33.1875 C32.16617115 33.14686168 33.83388095 33.144779 35.5 33.1875 C36.72475674 36.72122437 36.55745526 38.05223748 35.06640625 41.5625 C34.41222458 42.7783528 33.74377064 43.98661616 33.0625 45.1875 C29.89288018 50.81994591 29.89288018 50.81994591 29.5 57.1875 C31.81 55.8675 34.12 54.5475 36.5 53.1875 C35.10450665 58.07172674 32.63195327 60.32691697 28.5 63.1875 C25.25 64.125 25.25 64.125 22.5 64.1875 C20.14046906 61.82796906 20.00858587 60.40854383 19.5 57.1875 C19.13237549 57.67105957 18.76475098 58.15461914 18.38598633 58.65283203 C16.6962355 60.87379911 15.00438374 63.09315736 13.3125 65.3125 C12.73435547 66.07304687 12.15621094 66.83359375 11.56054688 67.6171875 C9.88363457 69.81517425 8.19522575 72.00361578 6.5 74.1875 C6.0268335 74.80439697 5.55366699 75.42129395 5.06616211 76.05688477 C1.85901896 80.10690391 1.85901896 80.10690391 -1.5625 80.875 C-4.5 80.1875 -4.5 80.1875 -6.875 78.1875 C-10.27977488 71.90176176 -8.24852353 64.73009575 -6.5625 58.125 C-6.35085205 57.28098633 -6.1392041 56.43697266 -5.92114258 55.56738281 C-3.0617098 44.77447394 1.21545358 34.47937548 5.5 24.1875 C3.96666016 24.43306641 3.96666016 24.43306641 2.40234375 24.68359375 C-1.10972575 25.13710423 -4.40284454 25.28971523 -7.9375 25.25 C-8.98808594 25.24097656 -10.03867187 25.23195312 -11.12109375 25.22265625 C-12.29865234 25.20525391 -12.29865234 25.20525391 -13.5 25.1875 C-13.5 24.5275 -13.5 23.8675 -13.5 23.1875 C-12.71625 23.125625 -11.9325 23.06375 -11.125 23 C-10.25875 22.731875 -9.3925 22.46375 -8.5 22.1875 C-7.3974827 20.02128132 -7.3974827 20.02128132 -6.5 17.1875 C-5.62218226 15.84223752 -4.72475832 14.50964973 -3.8125 13.1875 C-1.73423515 10.00084163 -1.73423515 10.00084163 -1.6875 6.1875 C-1.955625 5.5275 -2.22375 4.8675 -2.5 4.1875 C-9.50112395 4.43754014 -13.39544228 6.41151152 -18.5 11.1875 C-22.07944881 15.10252213 -21.94489311 19.1399893 -21.78125 24.2265625 C-21.0911553 31.49172616 -19.09142467 37.39826124 -15.3125 43.625 C-11.98384633 49.47308577 -11.13066395 54.5660395 -12.5 61.1875 C-15.52329696 67.76704692 -19.54947331 71.78988209 -26.0625 74.875 C-31.1472889 76.66180432 -36.17530629 76.92726661 -41.5 76.1875 C-44.8020291 74.56545062 -46.67219129 73.27870239 -48.875 70.375 C-50.53301241 64.57195657 -49.53125192 60.18419077 -46.70703125 55.0546875 C-44.93434869 52.31247952 -43.0475474 50.22553792 -40.5 48.1875 C-39.18 48.1875 -37.86 48.1875 -36.5 48.1875 C-38.35123967 53.87345041 -38.35123967 53.87345041 -39.625 56.5625 C-40.86960008 60.29630024 -40.7541186 63.24866165 -40.5 67.1875 C-39.84 68.1775 -39.18 69.1675 -38.5 70.1875 C-31.48116332 69.64765851 -31.48116332 69.64765851 -25.5 66.1875 C-21.85638607 61.39327114 -21.14844693 58.66500025 -21.93896484 52.80029297 C-23.02212554 47.75591273 -25.03583121 43.06785601 -27 38.3125 C-27.82322176 36.27356066 -28.64615203 34.23450359 -29.46875 32.1953125 C-29.83419922 31.30473145 -30.19964844 30.41415039 -30.57617188 29.49658203 C-32.64878204 24.31615207 -33.50257404 19.54644233 -31.88671875 14.1328125 C-28.89653404 7.36208588 -23.63762368 3.30198552 -17.625 -0.75 C-11.56269976 -2.81118208 -5.82550696 -2.75387602 0 0 Z " fill="#FE9554" transform="translate(269.5,207.8125)"/>
<path d="M0 0 C3 0.9375 3 0.9375 4.875 3.5 C5.431875 4.7065625 5.431875 4.7065625 6 5.9375 C6.556875 5.586875 7.11375 5.23625 7.6875 4.875 C10.53886783 3.71904007 12.08517222 4.12782562 15 4.9375 C15.6875 7.0625 15.6875 7.0625 16 9.9375 C15.54625 10.824375 15.0925 11.71125 14.625 12.625 C12.82679803 16.29056556 12.01857121 19.83072139 11.3125 23.8125 C11.18294922 24.50085938 11.05339844 25.18921875 10.91992188 25.8984375 C10.60525879 27.57664062 10.30148535 29.25687953 10 30.9375 C16.25305753 27.54601117 19.76294953 22.78724211 21.94140625 16.0078125 C22.4193256 14.12115705 22.86282317 12.22524243 23.26171875 10.3203125 C24.07544824 7.69398981 24.77290614 6.53519777 27 4.9375 C30.1875 5.25 30.1875 5.25 33 5.9375 C32.52936682 9.04367896 31.76645624 11.47270446 30.5 14.375 C29.12049408 17.65132656 28.4278842 20.4288496 28 23.9375 C28.9075 23.48375 29.815 23.03 30.75 22.5625 C32.57593203 21.64953399 34.42060435 20.76698472 36.3125 20 C38.16205947 19.08144525 38.16205947 19.08144525 38.625 17.125 C38.810625 16.0421875 38.810625 16.0421875 39 14.9375 C39.495 13.761875 39.495 13.761875 40 12.5625 C41.11888374 9.89749796 41.11888374 9.89749796 41.5 6.75 C42 3.9375 42 3.9375 44 1.9375 C47.125 1.8125 47.125 1.8125 50 1.9375 C49.47731534 4.70026177 48.89130413 7.2635876 48 9.9375 C49.918125 10.123125 49.918125 10.123125 51.875 10.3125 C55.75 10.6875 55.75 10.6875 58 12.9375 C57.62910971 17.91123394 55.26737498 22.65900672 53.4375 27.25 C53.10814453 28.08595703 52.77878906 28.92191406 52.43945312 29.78320312 C51.63001123 31.83613546 50.81676543 33.88747286 50 35.9375 C54.27520523 33.33362146 57.06617153 30.94738483 59.875 26.8125 C63.69803332 21.32888271 67.77606913 16.11630886 72 10.9375 C72.6796875 12.62109375 72.6796875 12.62109375 73 14.9375 C68.69786302 24.21868363 60.45739763 36.42374204 51 40.9375 C48.06653464 41.41504087 46.74234647 41.37266862 44.1875 39.875 C42.35347367 36.88264125 42.43858643 34.28787132 43 30.9375 C44.56520422 25.74219773 46.49641329 20.75295732 49 15.9375 C47.02 15.2775 45.04 14.6175 43 13.9375 C42.62101562 15.01064453 42.62101562 15.01064453 42.234375 16.10546875 C40.89051744 19.18868626 39.29128611 21.57971294 37.25 24.25 C36.59515625 25.13300781 35.9403125 26.01601563 35.265625 26.92578125 C33 28.9375 33 28.9375 30.046875 29.48046875 C26.38445052 28.82780593 24.6789687 27.4588823 22 24.9375 C21.50371094 25.71996094 21.00742188 26.50242187 20.49609375 27.30859375 C15.09553334 35.35307178 15.09553334 35.35307178 12.015625 36.99609375 C9.25278148 37.4742782 7.45977379 37.24401586 5.125 35.6875 C3.02180467 32.41586283 2.88743593 29.65205625 2.9375 25.875 C2.94652344 24.99714844 2.95554688 24.11929687 2.96484375 23.21484375 C2.97644531 22.46332031 2.98804688 21.71179688 3 20.9375 C3 20.2775 3 19.6175 3 18.9375 C2.62488281 19.52917969 2.24976563 20.12085938 1.86328125 20.73046875 C-5.72696523 32.45042112 -5.72696523 32.45042112 -10.625 33.5 C-13 32.9375 -13 32.9375 -14.8125 31.5 C-17.47213666 25.76078406 -16.29383123 20.14927951 -14.375 14.3125 C-11.95573116 8.17392818 -7.43692311 -0.1549359 0 0 Z " fill="#0C0C0B" transform="translate(129,241.0625)"/>
<path d="M0 0 C2.31 0.33 4.62 0.66 7 1 C6.32648095 5.23304979 4.92947649 8.88430354 3.27734375 12.83203125 C3.01240616 13.46864182 2.74746857 14.10525238 2.47450256 14.76115417 C1.63312896 16.78009421 0.78542409 18.79630356 -0.0625 20.8125 C-0.63648889 22.18667311 -1.21006107 23.56102035 -1.78320312 24.93554688 C-3.18398484 28.29239352 -4.59045455 31.64682229 -6 35 C-0.86388194 35.2213664 4.28847899 35.3027928 9 33 C13.21977064 28.6901084 14.94670212 22.43414243 16.9375 16.875 C17.53802093 15.34024539 18.14409594 13.80765175 18.75585938 12.27734375 C20.23596079 8.54014768 21.6373001 4.78150015 23 1 C27.765625 1.84375 27.765625 1.84375 29.875 3.25 C31 5 31 5 30.72680664 7.2644043 C29.93886588 10.23010004 28.83724691 12.76014716 27.49609375 15.51953125 C26.75649414 17.0519043 26.75649414 17.0519043 26.00195312 18.61523438 C25.48568359 19.67033203 24.96941406 20.72542969 24.4375 21.8125 C23.91736328 22.88693359 23.39722656 23.96136719 22.86132812 25.06835938 C21.5792955 27.71475699 20.29203889 30.3584771 19 33 C21.64 33 24.28 33 27 33 C26.505 33.99 26.505 33.99 26 35 C24.9275 35.04125 23.855 35.0825 22.75 35.125 C18.77155771 35.63914723 18.77155771 35.63914723 16.640625 39.02734375 C12.36708233 46.31998995 9.95403442 54.71965848 7.22949219 62.69213867 C6.48329642 64.86269604 5.71232844 67.02312242 4.9375 69.18359375 C4.60600952 70.18814857 4.60600952 70.18814857 4.26782227 71.21299744 C3.58984375 73.07592773 3.58984375 73.07592773 2 76 C-0.55859375 77.05102539 -0.55859375 77.05102539 -3 77 C-3.66 76.34 -4.32 75.68 -5 75 C-4.93758083 66.51990952 -1.60388354 59.16151219 1.5625 51.4375 C2.08891664 50.1299699 2.61431568 48.82202963 3.13867188 47.51367188 C4.41580403 44.3384167 5.70654642 41.16864163 7 38 C2.05 38.99 -2.9 39.98 -8 41 C-8.94146218 43.76954409 -9.87892664 46.54029435 -10.8125 49.3125 C-11.08876221 50.13032959 -11.36502441 50.94815918 -11.6496582 51.79077148 C-13.45192561 57.18480299 -15.01901219 62.57476875 -16.26171875 68.12890625 C-16.50535156 68.74636719 -16.74898438 69.36382812 -17 70 C-18.485 70.495 -18.485 70.495 -20 71 C-22.0625 69.5 -22.0625 69.5 -24 67 C-23.62459105 60.50681549 -21.79730568 54.88283023 -19.55273438 48.82421875 C-17.9609619 44.16163308 -17.95204018 41.48733858 -20 37 C-19.23179932 36.79004395 -18.46359863 36.58008789 -17.67211914 36.36376953 C-14.10621371 34.54383826 -13.66173077 32.88057907 -12.24609375 29.1796875 C-11.78396484 28.0040625 -11.32183594 26.8284375 -10.84570312 25.6171875 C-10.38099609 24.38226563 -9.91628906 23.14734375 -9.4375 21.875 C-8.50153746 19.45462919 -7.56279941 17.03532959 -6.62109375 14.6171875 C-6.17878418 13.47604492 -5.73647461 12.33490234 -5.28076172 11.15917969 C-3.72079819 7.31130929 -1.94323877 3.66700587 0 0 Z " fill="#0C0C0C" transform="translate(91,210)"/>
<path d="M0 0 C-0.52268466 2.76276177 -1.10869587 5.3260876 -2 8 C-0.081875 8.185625 -0.081875 8.185625 1.875 8.375 C5.75 8.75 5.75 8.75 8 11 C7.62910971 15.97373394 5.26737498 20.72150672 3.4375 25.3125 C3.10814453 26.14845703 2.77878906 26.98441406 2.43945312 27.84570312 C1.63001123 29.89863546 0.81676543 31.94997286 0 34 C4.27520523 31.39612146 7.06617153 29.00988483 9.875 24.875 C13.69803332 19.39138271 17.77606913 14.17880886 22 9 C22.6796875 10.68359375 22.6796875 10.68359375 23 13 C18.69786302 22.28118363 10.45739763 34.48624204 1 39 C-1.93346536 39.47754087 -3.25765353 39.43516862 -5.8125 37.9375 C-7.64652633 34.94514125 -7.56141357 32.35037132 -7 29 C-5.43479578 23.80469773 -3.50358671 18.81545732 -1 14 C-5.53832753 12.18397483 -5.53832753 12.18397483 -10 13 C-9.51058029 5.10177853 -9.51058029 5.10177853 -7.8125 1.4375 C-5.22068071 -0.61808082 -3.20679254 -0.28504823 0 0 Z " fill="#0D0D0D" transform="translate(179,243)"/>
<path d="M0 0 C1.9375 0.375 1.9375 0.375 4 1 C5.77868301 4.55736602 5.76310489 8.135243 5 12 C2.18441533 16.48637117 -1.6184932 20.0488198 -6 23 C-6.66 23 -7.32 23 -8 23 C-8.83026233 14.19921932 -5.45595972 6.84794944 0 0 Z " fill="#F6F0EA" transform="translate(339,250)"/>
<path d="M0 0 C1.15048828 0.96679688 1.15048828 0.96679688 2.32421875 1.953125 C5.04784156 4.03659704 6.64927629 4.61706015 10 5 C8.36292353 10.40235234 4.81879747 15.31193688 -0.0546875 18.23046875 C-2.44206476 19.17487301 -3.62275506 18.84901605 -6 18 C-6.36020428 13.00216563 -5.34389935 10.01981128 -3 5.625 C-2.443125 4.56539062 -1.88625 3.50578125 -1.3125 2.4140625 C-0.879375 1.61742187 -0.44625 0.82078125 0 0 Z " fill="#F6EFE8" transform="translate(399,251)"/>
<path d="M0 0 C0.66 0 1.32 0 2 0 C3.12026894 12.0989045 -5.07188382 21.74953777 -12 31 C-12.97071835 32.02844829 -13.95612775 33.04588747 -15 34 C-13.58656788 26.89245561 -11.48353958 20.26637887 -8.625 13.625 C-8.34519287 12.95984375 -8.06538574 12.2946875 -7.77709961 11.609375 C-5.76934211 7.08382712 -3.41938321 3.59759211 0 0 Z " fill="#F6ECE3" transform="translate(369,217)"/>
<path d="M0 0 C0.99 0 1.98 0 3 0 C4.24895518 4.02441115 5.05741829 6.88917097 3.09814453 10.80029297 C0.41002868 15.13243529 -2.63277588 19.17583432 -6 23 C-6.66 23 -7.32 23 -8 23 C-7.96495449 15.07971375 -5.81268419 5.81268419 0 0 Z " fill="#E6E5E1" transform="translate(128,245)"/>
<path d="M0 0 C0.40214229 6.16618181 -1.03181664 11.17745757 -3 17 C-4.99954746 17.04254356 -7.00041636 17.04080783 -9 17 C-10 16 -10 16 -10.25 12.8125 C-9.93326564 7.98230094 -8.48280206 4.93408965 -5.5625 1.125 C-4 0 -4 0 0 0 Z " fill="#F6F0E9" transform="translate(414,237)"/>
<path d="M0 0 C2.97 0.495 2.97 0.495 6 1 C6.6875 3.3125 6.6875 3.3125 7 6 C5.625 7.5625 5.625 7.5625 4 9 C3.87625 9.639375 3.7525 10.27875 3.625 10.9375 C2.69064698 14.02086495 0.54773253 15.1708587 -2 17 C-2.66 16.67 -3.32 16.34 -4 16 C-3.54908657 13.36967167 -3.01537696 11.03748133 -2 8.5625 C-0.89092718 5.72050091 -0.42056764 3.01406808 0 0 Z " fill="#FE995B" transform="translate(381,226)"/>
<path d="M0 0 C4.75 0.75 4.75 0.75 7 3 C6.625 5.125 6.625 5.125 6 7 C5.34 7 4.68 7 4 7 C4.12375 7.721875 4.2475 8.44375 4.375 9.1875 C3.94638494 12.40211294 3.49947518 12.79534876 1.125 14.8125 C-2 17 -2 17 -4 17 C-4.75 15.4375 -4.75 15.4375 -5 13 C-4.02984013 11.25371223 -3.05259946 9.50940879 -1.9921875 7.81640625 C-0.61512387 5.29540393 -0.27646422 2.83375824 0 0 Z " fill="#1B1A1A" transform="translate(162,226)"/>
<path d="M0 0 C1.21084775 3.45928292 0.80476826 5.27513071 -0.58203125 8.625 C-0.93716797 9.49640625 -1.29230469 10.3678125 -1.65820312 11.265625 C-2.03912109 12.16796875 -2.42003906 13.0703125 -2.8125 14 C-3.36647461 15.35351562 -3.36647461 15.35351562 -3.93164062 16.734375 C-8.46206917 27.73103458 -8.46206917 27.73103458 -11 29 C-10.43093823 24.77968545 -9.44043969 21.27086411 -7.71484375 17.3828125 C-7.04291992 15.85527344 -7.04291992 15.85527344 -6.35742188 14.296875 C-5.88884766 13.25015625 -5.42027344 12.2034375 -4.9375 11.125 C-4.46505859 10.05507812 -3.99261719 8.98515625 -3.50585938 7.8828125 C-2.34332699 5.2524362 -1.17455398 2.62502483 0 0 Z " fill="#FCA975" transform="translate(283,230)"/>
<path d="M0 0 C0 3.61656862 -1.02130767 5.0319615 -3 8 C-3.66 8.66 -4.32 9.32 -5 10 C-5.99 9.67 -6.98 9.34 -8 9 C-6.85459775 7.68712379 -5.70866567 6.37470979 -4.5625 5.0625 C-3.92441406 4.33160156 -3.28632813 3.60070312 -2.62890625 2.84765625 C-1.77458541 1.87860647 -0.91348825 0.91348825 0 0 Z " fill="#FD9D62" transform="translate(342,264)"/>
<path d="M0 0 C0.66 0 1.32 0 2 0 C2 3.96 2 7.92 2 12 C1.01 12.495 1.01 12.495 0 13 C-1.49084832 8.52745503 -1.49084832 4.47254497 0 0 Z " fill="#FBB78B" transform="translate(221,266)"/>
<path d="M0 0 C0.6875 1.8125 0.6875 1.8125 1 4 C-0.86245982 6.54862922 -3.15616877 7.7251791 -6 9 C-4.47291037 5.56404834 -2.40072955 2.88087546 0 0 Z " fill="#161616" transform="translate(201,252)"/>
<path d="M0 0 C2 3 2 3 1.3125 6.625 C0.879375 7.73875 0.44625 8.8525 0 10 C-0.99 10.33 -1.98 10.66 -3 11 C-2.69078116 9.54096742 -2.37751201 8.08279278 -2.0625 6.625 C-1.88847656 5.81289063 -1.71445312 5.00078125 -1.53515625 4.1640625 C-1 2 -1 2 0 0 Z " fill="#FDA46C" transform="translate(271,260)"/>
</svg>
